<?xml version="1.0" standalone="no"?>
<!DOCTYPE svg PUBLIC "-//W3C//DTD SVG 20010904//EN"
 "http://www.w3.org/TR/2001/REC-SVG-20010904/DTD/svg10.dtd">
<svg version="1.0" xmlns="http://www.w3.org/2000/svg"
 width="1822.000000pt" height="2048.000000pt" viewBox="0 0 1822.000000 2048.000000"
 preserveAspectRatio="xMidYMid meet">
<metadata>
Created by potrace 1.16, written by Peter Selinger 2001-2019
</metadata>
<g transform="translate(0.000000,2048.000000) scale(0.100000,-0.100000)"
fill="#000000" stroke="none">
<path d="M16190 14316 c-993 -573 -2401 -1387 -3130 -1808 -729 -421 -1917
-1106 -2640 -1523 -3125 -1801 -3930 -2268 -3930 -2279 0 -7 35 -66 78 -132
509 -773 1313 -1264 2237 -1364 231 -25 607 -9 855 36 421 76 872 269 1226
525 295 213 561 490 757 789 42 63 82 123 89 134 13 17 81 -21 1093 -606 594
-344 1184 -685 1310 -758 127 -73 232 -134 234 -136 5 -4 -104 -181 -202 -329
-840 -1262 -2165 -2187 -3637 -2539 -513 -123 -854 -161 -1435 -161 -429 0
-552 8 -875 56 -1563 233 -2961 1059 -3935 2324 -109 141 -359 510 -405 598
-14 26 -28 47 -31 47 -5 0 -3608 -2077 -3618 -2086 -6 -5 49 -92 117 -188 73
-101 226 -258 322 -328 70 -52 7576 -4390 7719 -4462 84 -43 200 -82 310 -106
75 -17 128 -20 411 -20 283 0 336 3 411 20 111 24 226 63 312 107 145 72 7646
4408 7712 4458 105 78 171 140 254 240 185 222 317 478 388 750 l28 110 0
4545 0 4545 -28 109 c-36 135 -80 253 -143 379 l-49 96 -1805 -1043z m-1680
-3411 l0 -335 338 -2 337 -3 0 -335 0 -335 -337 -3 -338 -2 0 -335 0 -335
-340 0 -340 0 0 335 0 335 -335 0 -335 0 0 340 0 340 335 0 335 0 0 335 0 335
340 0 340 0 0 -335z m2530 0 l0 -335 338 -2 337 -3 3 -337 2 -338 -340 0 -340
0 0 -335 0 -335 -340 0 -340 0 0 335 0 335 -335 0 -335 0 0 340 0 340 335 0
335 0 0 335 0 335 340 0 340 0 0 -335z"/>
</g>
</svg>
